<svg xmlns="http://www.w3.org/2000/svg" viewBox="0 0 220 330" fill="none" stroke="#63584f" stroke-width="1.8" stroke-linecap="round" stroke-linejoin="round">
<title>Mara reaching for a book</title>
<path d="M75 233l-11 70H89l19-63M125 237l10 65h24l-8-71Z" fill="#4c6060"/>
<path d="M62 298l-15 11q-5 9 40 7l4-13M137 300l-3 13q29 8 44 0l-21-14Z" fill="#65574e"/>
<path d="M69 120Q104 106 147 122L174 253Q121 267 44 252Z" fill="#ae726a"/>
<path d="M111 140l-6 119M84 123l-8 28 30-12M131 124l13 24-33-9" stroke-width="1.3"/>
<circle cx="115" cy="172" r="2.5" fill="#dec492"/>
<circle cx="113" cy="198" r="2.5" fill="#dec492"/>
<ellipse cx="106" cy="77" rx="43" ry="47" fill="#bd9176"/>
<path d="M61 66Q47 33  70 23Q98-2 137 22Q168 28 152  70L136 56Q108 57 103 34Q86 64 61 66Z" fill="#514541"/>
<circle cx="67" cy="32" r="13" fill="#514541" stroke-width="1"/>
<circle cx="83" cy="20" r="13" fill="#514541" stroke-width="1"/>
<circle cx="107" cy="17" r="14" fill="#514541" stroke-width="1"/>
<circle cx="131" cy="24" r="14" fill="#514541" stroke-width="1"/>
<circle cx="149" cy="42" r="12" fill="#514541" stroke-width="1"/>
<ellipse cx="90" cy="78" rx="2.3" ry="3.5" fill="#63584f"/>
<ellipse cx="125" cy="78" rx="2.3" ry="3.5" fill="#63584f"/>
<path d="M107 80l-4 14h6M97 106q10 6 20-1" stroke-width="1.2"/>
<path d="M76 95l10 3M126 98l11-3" stroke="#d6a58c"/>
<path d="M77 115q31 16  60 0l5 16q-34 21-70 0Z" fill="#d6c394"/>
<path d="M79 132l-10 43 17 3 14-37Z" fill="#d6c394"/>
<path d="M70 140l81 75" stroke="#69564b" stroke-width="4"/>
<path d="M127 198l56 12-8 57-53-12Z" fill="#816b59"/>
<path d="M126 204l23 28 31-17" stroke-width="1.1"/>
<circle cx="150" cy="229" r="3" fill="#d3b785"/>
<path d="M149 141q23-4 29-27l15 8q-5 43-35 48Z" fill="#ae726a"/>
<ellipse cx="188" cy="113" rx="9" ry="13" fill="#bd9176"/>
<path d="M68 141q-18 27-9 65l16-1 10-61Z" fill="#ae726a"/>
<ellipse cx="66" cy="212" rx="8" ry="11" fill="#bd9176"/>
</svg>
