<svg xmlns="http://www.w3.org/2000/svg" viewBox="0 0 200 200" fill="none" stroke-width="2.4" stroke-linecap="round">
<title>はなび</title>
<path d="M100 100L178 100" stroke="#e9c25e"/><path d="M100 100L172 130" stroke="#e9c25e"/><path d="M100 100L155 155" stroke="#e9c25e"/><path d="M100 100L130 172" stroke="#e9c25e"/><path d="M100 100L100 178" stroke="#e9c25e"/><path d="M100 100L70 172" stroke="#e9c25e"/><path d="M100 100L45 155" stroke="#e9c25e"/><path d="M100 100L28 130" stroke="#e9c25e"/><path d="M100 100L22 100" stroke="#e9c25e"/><path d="M100 100L28 70" stroke="#e9c25e"/><path d="M100 100L45 45" stroke="#e9c25e"/><path d="M100 100L70 28" stroke="#e9c25e"/><path d="M100 100L100 22" stroke="#e9c25e"/><path d="M100 100L130 28" stroke="#e9c25e"/><path d="M100 100L155 45" stroke="#e9c25e"/><path d="M100 100L172 70" stroke="#e9c25e"/><circle cx="184" cy="100" r="4" fill="#f7e6b0" stroke="none"/><circle cx="178" cy="132" r="4" fill="#f7e6b0" stroke="none"/><circle cx="159" cy="159" r="4" fill="#f7e6b0" stroke="none"/><circle cx="132" cy="178" r="4" fill="#f7e6b0" stroke="none"/><circle cx="100" cy="184" r="4" fill="#f7e6b0" stroke="none"/><circle cx="68" cy="178" r="4" fill="#f7e6b0" stroke="none"/><circle cx="41" cy="159" r="4" fill="#f7e6b0" stroke="none"/><circle cx="22" cy="132" r="4" fill="#f7e6b0" stroke="none"/><circle cx="16" cy="100" r="4" fill="#f7e6b0" stroke="none"/><circle cx="22" cy="68" r="4" fill="#f7e6b0" stroke="none"/><circle cx="41" cy="41" r="4" fill="#f7e6b0" stroke="none"/><circle cx="68" cy="22" r="4" fill="#f7e6b0" stroke="none"/><circle cx="100" cy="16" r="4" fill="#f7e6b0" stroke="none"/><circle cx="132" cy="22" r="4" fill="#f7e6b0" stroke="none"/><circle cx="159" cy="41" r="4" fill="#f7e6b0" stroke="none"/><circle cx="178" cy="68" r="4" fill="#f7e6b0" stroke="none"/><circle cx="139" cy="108" r="3" fill="#f7e6b0" stroke="none"/><circle cx="130" cy="126" r="3" fill="#f7e6b0" stroke="none"/><circle cx="113" cy="138" r="3" fill="#f7e6b0" stroke="none"/><circle cx="92" cy="139" r="3" fill="#f7e6b0" stroke="none"/><circle cx="74" cy="130" r="3" fill="#f7e6b0" stroke="none"/><circle cx="62" cy="113" r="3" fill="#f7e6b0" stroke="none"/><circle cx="61" cy="92" r="3" fill="#f7e6b0" stroke="none"/><circle cx="70" cy="74" r="3" fill="#f7e6b0" stroke="none"/><circle cx="87" cy="62" r="3" fill="#f7e6b0" stroke="none"/><circle cx="108" cy="61" r="3" fill="#f7e6b0" stroke="none"/><circle cx="126" cy="70" r="3" fill="#f7e6b0" stroke="none"/><circle cx="138" cy="87" r="3" fill="#f7e6b0" stroke="none"/><circle cx="100" cy="100" r="8" fill="#f7e6b0" stroke="none"/>
</svg>