<svg xmlns="http://www.w3.org/2000/svg" viewBox="0 0 160 210" fill="none" stroke="#63584f" stroke-width="1.8" stroke-linecap="round" stroke-linejoin="round">
<title>公園の たんぽぽ</title>
<path d="M75 180Q60 90 80 53" stroke="#81966b" stroke-width="3"/>
<path d="M80 53L115.0 53.0" stroke="#d1cbb0" stroke-width="1.2"/>
<circle cx="115.0" cy="53.0" r="4" fill="#f7edda" stroke="#c4bfa4"/>
<path d="M80 53L110.3 70.5" stroke="#d1cbb0" stroke-width="1.2"/>
<circle cx="110.3" cy="70.5" r="4" fill="#f7edda" stroke="#c4bfa4"/>
<path d="M80 53L97.5 83.3" stroke="#d1cbb0" stroke-width="1.2"/>
<circle cx="97.5" cy="83.3" r="4" fill="#f7edda" stroke="#c4bfa4"/>
<path d="M80 53L80.0 88.0" stroke="#d1cbb0" stroke-width="1.2"/>
<circle cx="80.0" cy="88.0" r="4" fill="#f7edda" stroke="#c4bfa4"/>
<path d="M80 53L62.5 83.3" stroke="#d1cbb0" stroke-width="1.2"/>
<circle cx="62.5" cy="83.3" r="4" fill="#f7edda" stroke="#c4bfa4"/>
<path d="M80 53L49.7 70.5" stroke="#d1cbb0" stroke-width="1.2"/>
<circle cx="49.7" cy="70.5" r="4" fill="#f7edda" stroke="#c4bfa4"/>
<path d="M80 53L45.0 53.0" stroke="#d1cbb0" stroke-width="1.2"/>
<circle cx="45.0" cy="53.0" r="4" fill="#f7edda" stroke="#c4bfa4"/>
<path d="M80 53L49.7 35.5" stroke="#d1cbb0" stroke-width="1.2"/>
<circle cx="49.7" cy="35.5" r="4" fill="#f7edda" stroke="#c4bfa4"/>
<path d="M80 53L62.5 22.7" stroke="#d1cbb0" stroke-width="1.2"/>
<circle cx="62.5" cy="22.7" r="4" fill="#f7edda" stroke="#c4bfa4"/>
<path d="M80 53L80.0 18.0" stroke="#d1cbb0" stroke-width="1.2"/>
<circle cx="80.0" cy="18.0" r="4" fill="#f7edda" stroke="#c4bfa4"/>
<path d="M80 53L97.5 22.7" stroke="#d1cbb0" stroke-width="1.2"/>
<circle cx="97.5" cy="22.7" r="4" fill="#f7edda" stroke="#c4bfa4"/>
<path d="M80 53L110.3 35.5" stroke="#d1cbb0" stroke-width="1.2"/>
<circle cx="110.3" cy="35.5" r="4" fill="#f7edda" stroke="#c4bfa4"/>
<g transform="translate(66 181) scale(0.65)">
<path d="M0 0Q9-38 0-94" stroke="#a0b48a" stroke-width="2"/>
<path d="M2 -19q24-3 21-24q-25 1 -21 24Z" fill="#a0b48a" stroke-width="1"/>
<path d="M5 -40q-24-3 -21-24q25 1 21 24Z" fill="#a0b48a" stroke-width="1"/>
<path d="M3 -63q24-3 21-24q-25 1 -21 24Z" fill="#a0b48a" stroke-width="1"/>
<path d="M0 -82q-24-3 -21-24q25 1 21 24Z" fill="#a0b48a" stroke-width="1"/>
</g>
</svg>
