<svg xmlns="http://www.w3.org/2000/svg" viewBox="0 0 1000 1000">
<g id="bear">
<ellipse cx="410" cy="850" rx="82" ry="46" fill="#8f5f3a"/>
<ellipse cx="590" cy="850" rx="82" ry="46" fill="#8f5f3a"/>
<ellipse cx="500" cy="660" rx="232" ry="212" fill="#a56f45"/>
<ellipse cx="500" cy="690" rx="140" ry="130" fill="#dcb890" opacity=".85"/>
<ellipse cx="320" cy="620" rx="72" ry="54" fill="#a56f45" transform="rotate(-30 320 620)"/>
<ellipse cx="680" cy="620" rx="72" ry="54" fill="#a56f45" transform="rotate(30 680 620)"/>
<circle cx="262" cy="574" r="56" fill="#c8553d"/>
<circle cx="738" cy="574" r="56" fill="#c8553d"/>
<path d="M232 540 Q 262 520 292 540" stroke="#a8412c" stroke-width="10" stroke-linecap="round" fill="none"/>
<path d="M708 540 Q 738 520 768 540" stroke="#a8412c" stroke-width="10" stroke-linecap="round" fill="none"/>
<circle cx="350" cy="240" r="62" fill="#a56f45"/>
<circle cx="650" cy="240" r="62" fill="#a56f45"/>
<circle cx="350" cy="240" r="32" fill="#dcb890"/>
<circle cx="650" cy="240" r="32" fill="#dcb890"/>
<circle cx="500" cy="380" r="192" fill="#a56f45"/>
<ellipse cx="500" cy="446" rx="98" ry="76" fill="#dcb890"/>
<ellipse cx="500" cy="418" rx="28" ry="20" fill="#2e2b25"/>
<path d="M470 470 Q 500 496 530 470" stroke="#2e2b25" stroke-width="9" stroke-linecap="round" fill="none"/>
<circle cx="430" cy="352" r="17" fill="#2e2b25"/>
<circle cx="570" cy="352" r="17" fill="#2e2b25"/>
<circle cx="436" cy="346" r="5" fill="#ffffff"/>
<circle cx="576" cy="346" r="5" fill="#ffffff"/>
<circle cx="384" cy="426" r="24" fill="#f0c9b0" opacity=".75"/>
<circle cx="616" cy="426" r="24" fill="#f0c9b0" opacity=".75"/>
<path d="M330 522 Q 500 600 670 522 Q 690 560 670 586 Q 500 660 330 586 Q 310 560 330 522 Z" fill="#c8553d"/>
<path d="M560 574 L640 574 L664 720 L584 730 Z" fill="#c8553d"/>
<g stroke="#a8412c" stroke-width="7" stroke-linecap="round">
<line x1="596" y1="728" x2="592" y2="770"/>
<line x1="620" y1="726" x2="620" y2="768"/>
<line x1="644" y1="724" x2="650" y2="764"/>
</g>
<path d="M350 548 Q 500 610 650 548" stroke="#a8412c" stroke-width="7" fill="none" opacity=".7"/>
</g>
</svg>
