<svg xmlns="http://www.w3.org/2000/svg" viewBox="0 0 180 200" fill="none" stroke="#69584d" stroke-width="1.8" stroke-linecap="round" stroke-linejoin="round">
<title>みあげる モグ</title>
<path d="M40 192C30 132 60 92 90 92C120 92 150 132 140 192Z" fill="#8d7a6e"/>
<ellipse cx="90" cy="152" rx="30" ry="30" fill="#b3a396" stroke-width="1.2"/>
<circle cx="90" cy="76" r="40" fill="#8d7a6e"/>
<ellipse cx="90" cy="46" rx="17" ry="12" fill="#8d7a6e"/>
<circle cx="90" cy="38" r="8" fill="#e3a49a" stroke-width="1.2"/>
<ellipse cx="74" cy="64" rx="2.6" ry="4" fill="#69584d" stroke="none"/><ellipse cx="106" cy="64" rx="2.6" ry="4" fill="#69584d" stroke="none"/>
<path d="M66 54q6-4 12 0M96 54q6-4 12 0" stroke-width="1.3"/>
<path d="M84 84q6 5 12 0" stroke-width="1.4"/>
<ellipse cx="66" cy="76" rx="7" ry="4" fill="#e2b7aa" opacity=".5" stroke="none"/><ellipse cx="114" cy="76" rx="7" ry="4" fill="#e2b7aa" opacity=".5" stroke="none"/>
<path d="M72 46l-14-4M72 52l-14 2M108 46l14-4M108 52l14 2" stroke-width="1.1"/>
<ellipse cx="72" cy="132" rx="15" ry="11" fill="#e9c9a0"/><path d="M64 121l-2-7M72 120l0-8M80 121l2-7" stroke-width="1.6"/><ellipse cx="108" cy="132" rx="15" ry="11" fill="#e9c9a0"/><path d="M100 121l-2-7M108 120l0-8M116 121l2-7" stroke-width="1.6"/>
</svg>